# xmcd
#
# Track frame offsets:
#	150
#	10667
#	25108
#	47038
#	65716
#	85182
#	100836
#	121024
#	146847
#	165789
#	190353
#	203426
#
# Disc length: 2900 seconds
#
# Revision: 0
# Processed by: cddbd v1.5.2PL0 Copyright (c) Steve Scherf et al.
# Submitted via: EZCDAudioConverter 2.1.7.1
#
DISCID=910b520c
DTITLE=Leon Russell - Life Journey
DYEAR=1900
DGENRE=
TTITLE0=Come On In My Kitchen
TTITLE1=Big Lips
TTITLE2=Georgia On My Mind
TTITLE3=That Lucky Old Sun
TTITLE4=Fever
TTITLE5=Think Of Me
TTITLE6=I Got It Bad and That Ain't Good
TTITLE7=The Masquerade Is Over
TTITLE8=I Really Miss You
TTITLE9=New York State Of Mind
TTITLE10=Fool's Paradise
TTITLE11=Down In Dixieland
EXTD=
EXTT0=
EXTT1=
EXTT2=
EXTT3=
EXTT4=
EXTT5=
EXTT6=
EXTT7=
EXTT8=
EXTT9=
EXTT10=
EXTT11=
PLAYORDER=
